<svg xmlns="http://www.w3.org/2000/svg" width="57.191" height="52.614" viewBox="0 0 57.191 52.614"><defs><style>.a{fill:#222a35;}</style></defs><g transform="translate(20.227 -2.463) rotate(31)"><path class="a" d="M81.629.626A2.143,2.143,0,0,0,80.154.02c-.012,0-.022-.011-.035-.013a.7.7,0,0,0-.335.037,2.107,2.107,0,0,0-1.205.582L57.241,21.963a2.181,2.181,0,0,0,0,3.048l12.7,12.7a2.148,2.148,0,0,0,1.524.63c.032,0,.064-.008.1-.009h.012c.01,0,.018,0,.027,0a2.142,2.142,0,0,0,1.39-.617L94.331,16.375a2.156,2.156,0,0,0,0-3.048ZM93.313,14.343c.013.013.018.031.029.044l-15.06,2.707L80.6,1.635a.055.055,0,0,1,.011.007ZM79.069,2.17,76.424,19.8,58.786,22.451ZM58.259,24a.065.065,0,0,0-.007-.011l15.457-2.319L71,36.726c-.014-.012-.031-.017-.045-.03Zm14.319,12.1,2.631-14.653,1.43-.216a1.419,1.419,0,0,0,1.2-1.2l.215-1.431L92.715,15.96Zm0,0" transform="translate(-51.838 0)"/><path class="a" d="M25.1,384.233l-7.9,7.9a.718.718,0,1,0,1.016,1.016l7.9-7.9a.718.718,0,0,0-1.016-1.016Zm0,0" transform="translate(-15.533 -351.698)"/><path class="a" d="M.733,330.038a.718.718,0,0,0,.508-.211l4.311-4.311A.718.718,0,0,0,4.536,324.5L.225,328.812a.718.718,0,0,0,.508,1.226Zm0,0" transform="translate(0 -296.995)"/><path class="a" d="M119.692,449.293a.718.718,0,0,0,1.016,0l4.311-4.311A.718.718,0,0,0,124,443.967l-4.311,4.311A.718.718,0,0,0,119.692,449.293Zm0,0" transform="translate(-109.408 -406.402)"/><path class="a" d="M.733,404.684a.718.718,0,0,0,.508-.211L3.4,402.318A.718.718,0,0,0,2.381,401.3L.225,403.457a.718.718,0,0,0,.508,1.226Zm0,0" transform="translate(0 -367.33)"/><path class="a" d="M70.55,469.568l-2.156,2.155a.718.718,0,1,0,1.016,1.016l2.156-2.155a.718.718,0,0,0-1.016-1.016Zm0,0" transform="translate(-62.421 -429.848)"/><path class="a" d="M145.293,184.043a.718.718,0,0,0,1.016,0l3.592-3.592a.718.718,0,0,0-1.016-1.016l-3.592,3.592A.718.718,0,0,0,145.293,184.043Zm0,0" transform="translate(-132.854 -164.142)"/><path class="a" d="M214.069,147.247a.717.717,0,0,0,.508-.21l.719-.719a.718.718,0,0,0-1.016-1.016l-.719.718a.719.719,0,0,0,.508,1.226Zm0,0" transform="translate(-195.374 -132.883)"/></g></svg>