<svg xmlns="http://www.w3.org/2000/svg" width="35" height="35.001" viewBox="0 0 35 35.001"><defs><style>.a{fill:#ffab7c;}</style></defs><g transform="translate(-0.015 -0.001)"><path class="a" d="M76.924.509a1.74,1.74,0,0,0-1.2-.492c-.01,0-.018-.009-.029-.01a.567.567,0,0,0-.272.03,1.71,1.71,0,0,0-.978.473L57.124,17.832a1.771,1.771,0,0,0,0,2.475L67.437,30.62a1.744,1.744,0,0,0,1.237.512c.026,0,.052-.006.077-.007h.01c.008,0,.015,0,.022,0a1.739,1.739,0,0,0,1.128-.5L87.236,13.3a1.75,1.75,0,0,0,0-2.475Zm9.487,11.137c.01.01.014.025.024.036l-12.227,2.2L76.09,1.328l.009.006ZM74.846,1.762,72.7,16.08l-14.32,2.149Zm-16.9,17.72a.053.053,0,0,0-.006-.009l12.549-1.883L68.3,29.818c-.011-.01-.025-.014-.036-.025ZM69.576,29.3l2.136-11.9,1.161-.175a1.152,1.152,0,0,0,.977-.977l.175-1.162,11.9-2.136Zm0,0" transform="translate(-52.734 0)"/><path class="a" d="M23.57,384.2l-6.417,6.417a.583.583,0,1,0,.825.825L24.4,385.02a.583.583,0,0,0-.825-.825Zm0,0" transform="translate(-15.801 -357.779)"/><path class="a" d="M.6,328.959a.583.583,0,0,0,.413-.171l3.5-3.5a.583.583,0,0,0-.825-.825l-3.5,3.5a.583.583,0,0,0,.412,1Zm0,0" transform="translate(0 -302.13)"/><path class="a" d="M119.652,448.253a.583.583,0,0,0,.825,0l3.5-3.5a.583.583,0,0,0-.825-.825l-3.5,3.5A.583.583,0,0,0,119.652,448.253Zm0,0" transform="translate(-111.3 -413.429)"/><path class="a" d="M.6,404.01a.583.583,0,0,0,.413-.171l1.75-1.75a.583.583,0,0,0-.825-.825l-1.75,1.75a.583.583,0,0,0,.412,1Zm0,0" transform="translate(0 -373.681)"/><path class="a" d="M70.1,469.53l-1.75,1.75a.583.583,0,1,0,.825.825l1.75-1.75a.583.583,0,0,0-.825-.825Zm0,0" transform="translate(-63.501 -437.28)"/><path class="a" d="M145.254,183.138a.583.583,0,0,0,.825,0L149,180.222a.583.583,0,0,0-.825-.825l-2.917,2.916A.583.583,0,0,0,145.254,183.138Zm0,0" transform="translate(-135.152 -166.98)"/><path class="a" d="M213.934,146.843a.582.582,0,0,0,.412-.171l.583-.583a.583.583,0,0,0-.825-.825l-.583.583a.583.583,0,0,0,.413,1Zm0,0" transform="translate(-198.753 -135.181)"/></g></svg>