<svg xmlns="http://www.w3.org/2000/svg" width="35" height="33.724" viewBox="0 0 35 33.724"><defs><style>.a{fill:#ffab7c;}</style></defs><g transform="translate(0 -1.002)"><path class="a" d="M32.882,23.013H25.949a.636.636,0,0,0,0,1.272h5.79l1.844,17.176H1.443L3.608,24.285h5.8a.636.636,0,0,0,0-1.272H2.486L0,42.734H35Z" transform="translate(0 -8.008)"/><path class="a" d="M22.7,25.155c-.094.055-.193.1-.283.162-.14.09-.277.185-.411.283a.636.636,0,0,0,.753,1.026c.113-.083.228-.163.349-.241a6.994,6.994,0,0,1,.645-.37.632.632,0,0,0,.294-.807c.005-.005.011-.009.016-.014A28.5,28.5,0,0,0,30.7,11.8a13.074,13.074,0,0,0,.218-4.4C30.369,3.213,27.77,1,23.4,1S16.434,3.213,15.886,7.4a13.09,13.09,0,0,0,.218,4.4A28.548,28.548,0,0,0,22.7,25.155ZM17.147,7.562C17.614,4,19.66,2.275,23.4,2.275S29.189,4,29.655,7.562a11.841,11.841,0,0,1-.2,3.974,27.99,27.99,0,0,1-6.052,12.5,28,28,0,0,1-6.052-12.5A11.842,11.842,0,0,1,17.147,7.562Z" transform="translate(-5.745)"/><path class="a" d="M25.082,14.58a4.673,4.673,0,1,0-4.673-4.673A4.678,4.678,0,0,0,25.082,14.58Zm0-8.074a3.4,3.4,0,1,1-3.4,3.4A3.405,3.405,0,0,1,25.082,6.506Z" transform="translate(-7.425 -1.539)"/><path class="a" d="M31.14,37.043a.636.636,0,0,0,.266,1.244c.373-.079.777-.146,1.2-.2a.636.636,0,1,0-.157-1.262C31.989,36.882,31.549,36.955,31.14,37.043Z" transform="translate(-11.147 -13.032)"/><path class="a" d="M36.6,37.166a.636.636,0,0,0,.635.609h.028l1.273-.053a.636.636,0,0,0,.606-.664.652.652,0,0,0-.664-.607l-1.27.053A.635.635,0,0,0,36.6,37.166Z" transform="translate(-13.316 -12.897)"/><path class="a" d="M21.692,42.1c-.327.247-.665.484-1.005.7a.636.636,0,0,0,.693,1.067c.365-.237.728-.491,1.078-.756a.636.636,0,1,0-.767-1.016Z" transform="translate(-7.421 -14.908)"/><path class="a" d="M43.94,35.487a2.267,2.267,0,0,1-.856.335.636.636,0,1,0,.258,1.246,3.5,3.5,0,0,0,1.333-.543l.085-.062a.636.636,0,1,0-.768-1.015Z" transform="translate(-15.491 -12.486)"/><path class="a" d="M8.073,42.943a.636.636,0,0,0-1.228-.332A4.255,4.255,0,0,0,6.7,43.5c0,.073-.005.147-.005.225,0,.125.006.249.018.373a.636.636,0,0,0,.632.571c.021,0,.043,0,.066,0a.638.638,0,0,0,.569-.7c-.009-.083-.012-.168-.013-.248,0-.053,0-.106,0-.158A2.964,2.964,0,0,1,8.073,42.943Z" transform="translate(-2.437 -14.967)"/><path class="a" d="M43.565,27.792a3.741,3.741,0,0,0-1.518.115.636.636,0,0,0,.172,1.248.621.621,0,0,0,.173-.024,2.483,2.483,0,0,1,1-.078.636.636,0,0,0,.17-1.262Z" transform="translate(-15.13 -9.736)"/><path class="a" d="M46.655,31.794a.636.636,0,0,0,.42.8.623.623,0,0,0,.188.029.635.635,0,0,0,.608-.449,2.71,2.71,0,0,0,.116-.613c0-.053.005-.106.005-.159a2.539,2.539,0,0,0-.162-.886.636.636,0,0,0-1.193.442,1.275,1.275,0,0,1,.083.443l0,.074A1.434,1.434,0,0,1,46.655,31.794Z" transform="translate(-16.953 -10.586)"/><path class="a" d="M16.6,45.129c-.373.175-.753.337-1.129.483a.636.636,0,0,0,.23,1.23.629.629,0,0,0,.229-.043c.4-.156.811-.33,1.211-.517a.637.637,0,0,0-.541-1.153Z" transform="translate(-5.482 -16.033)"/><path class="a" d="M9.837,40.12a.636.636,0,0,0,.3-.078,1.556,1.556,0,0,1,.58-.184,1.032,1.032,0,0,1,.258,0,.636.636,0,0,0,.167-1.261,2.349,2.349,0,0,0-.567-.005,2.827,2.827,0,0,0-1.047.331.636.636,0,0,0,.305,1.195Z" transform="translate(-3.347 -13.672)"/><path class="a" d="M9.721,48.126a3.151,3.151,0,0,0,.416.079,4.063,4.063,0,0,0,.489.03,4.722,4.722,0,0,0,.6-.039.636.636,0,0,0-.159-1.262,3.117,3.117,0,0,1-.774.01,2.122,2.122,0,0,1-.251-.048.636.636,0,1,0-.32,1.231Z" transform="translate(-3.363 -16.689)"/></g></svg>